<svg width="20" height="20" viewBox="0 0 20 20" fill="none" xmlns="http://www.w3.org/2000/svg">
<g id="Frame 10">
<g id="Vector">
<path d="M20 10C20 15.5228 15.5228 20 10 20C4.47715 20 0 15.5228 0 10C0 4.47715 4.47715 0 10 0C15.5228 0 20 4.47715 20 10Z" fill="#C8A35F"/>
<path fill-rule="evenodd" clip-rule="evenodd" d="M15.2584 5.65819C15.7037 5.98479 15.8 6.61059 15.4734 7.05596L10.6627 13.616C9.93784 14.6045 8.50244 14.7142 7.63569 13.8475L5.4599 11.6717C5.06938 11.2812 5.06938 10.648 5.4599 10.2575C5.85043 9.86697 6.48359 9.86697 6.87412 10.2575L9.0499 12.4333L13.8606 5.87323C14.1872 5.42787 14.813 5.33159 15.2584 5.65819Z" fill="#F6F6F6"/>
</g>
</g>
</svg>
