<svg width="60" height="60" viewBox="0 0 60 60" fill="none" xmlns="http://www.w3.org/2000/svg">
<g id="Frame" clip-path="url(#clip0_120_462)">
<g id="Vector">
<path fill-rule="evenodd" clip-rule="evenodd" d="M0.543206 49.5618C0.853497 49.8721 1.27434 50.0464 1.71316 50.0464H4.7135C5.16655 50.0464 5.53382 49.6792 5.53382 49.2261C5.53382 48.7731 5.16655 48.4058 4.7135 48.4058H1.71316C1.70946 48.4058 1.70592 48.4043 1.7033 48.4017C1.70069 48.3991 1.69922 48.3956 1.69922 48.3919V45.9141C1.69922 45.9104 1.70069 45.9068 1.7033 45.9042C1.70592 45.9016 1.70946 45.9001 1.71316 45.9001H4.6985C5.15155 45.9001 5.51882 45.5328 5.51882 45.0798C5.51882 44.6268 5.15155 44.2595 4.6985 44.2595H1.71316C1.27434 44.2595 0.853497 44.4338 0.543206 44.7441C0.232914 45.0544 0.0585938 45.4752 0.0585938 45.9141V48.3919C0.0585938 48.8307 0.232914 49.2515 0.543206 49.5618Z" fill="#F6F6F6"/>
<path fill-rule="evenodd" clip-rule="evenodd" d="M8.89275 49.2261C8.89275 49.6792 9.26001 50.0464 9.71306 50.0464H33.4204C33.8734 50.0464 34.2407 49.6792 34.2407 49.2261C34.2407 48.7731 33.8734 48.4058 33.4204 48.4058H9.71306C9.26001 48.4058 8.89275 48.7731 8.89275 49.2261Z" fill="#F6F6F6"/>
<path fill-rule="evenodd" clip-rule="evenodd" d="M36.1156 49.2261C36.1156 49.6792 36.4828 50.0464 36.9359 50.0464H50.591C51.044 50.0464 51.4113 49.6792 51.4113 49.2261C51.4113 48.7731 51.044 48.4058 50.591 48.4058H36.9359C36.4828 48.4058 36.1156 48.7731 36.1156 49.2261Z" fill="#F6F6F6"/>
<path fill-rule="evenodd" clip-rule="evenodd" d="M54.4584 49.2261C54.4584 49.6792 54.8257 50.0464 55.2787 50.0464H58.2869C58.5042 50.0464 58.7193 50.0036 58.9201 49.9205C59.1208 49.8373 59.3032 49.7154 59.4569 49.5618C59.6105 49.4081 59.7323 49.2257 59.8155 49.0249C59.8986 48.8242 59.9414 48.6091 59.9413 48.3919M54.4584 49.2261C54.4584 48.7731 54.8257 48.4058 55.2787 48.4058ZM55.2787 48.4058H58.2869ZM58.2869 48.4058C58.2887 48.4058 58.2905 48.4054 58.2922 48.4048ZM58.2922 48.4048C58.2939 48.4041 58.2954 48.403 58.2967 48.4018ZM58.2967 48.4018C58.298 48.4005 58.299 48.3989 58.2997 48.3973ZM58.2997 48.3973C58.3004 48.3956 58.3007 48.3938 58.3007 48.392ZM59.9413 48.3919V45.9142C59.9413 45.9141 59.9413 45.9142 59.9413 45.9142C59.9414 45.6969 59.8986 45.4817 59.8155 45.281C59.7323 45.0802 59.6105 44.8978 59.4569 44.7441C59.3032 44.5905 59.1208 44.4686 58.9201 44.3854C58.7193 44.3023 58.5042 44.2595 58.2869 44.2595H54.978C54.525 44.2595 54.1577 44.6268 54.1577 45.0798C54.1577 45.5328 54.525 45.9001 54.978 45.9001H58.2869C58.2887 45.9001 58.2905 45.9005 58.2922 45.9012C58.2939 45.9019 58.2954 45.9029 58.2967 45.9042C58.298 45.9054 58.299 45.907 58.2997 45.9086C58.3004 45.9103 58.3007 45.9121 58.3007 45.9139V48.392" fill="#F6F6F6"/>
<path fill-rule="evenodd" clip-rule="evenodd" d="M8.95298 45.0798C8.95298 45.5328 9.32025 45.9001 9.77329 45.9001H50.2905C50.7436 45.9001 51.1108 45.5328 51.1108 45.0798C51.1108 44.6268 50.7436 44.2595 50.2905 44.2595H9.77329C9.32025 44.2595 8.95298 44.6268 8.95298 45.0798Z" fill="#F6F6F6"/>
<path fill-rule="evenodd" clip-rule="evenodd" d="M1.71339 27.647C1.71343 27.647 1.71336 27.647 1.71339 27.647H4.64835C5.10139 27.647 5.46866 27.2798 5.46866 26.8267C5.46866 26.3737 5.10139 26.0064 4.64835 26.0064H1.71328C1.71146 26.0064 1.70955 26.0061 1.70787 26.0054C1.70619 26.0047 1.70467 26.0037 1.70339 26.0024C1.7021 26.0011 1.70108 25.9996 1.70039 25.9979C1.69969 25.9962 1.69934 25.9944 1.69934 25.9926V23.5147C1.69934 23.511 1.7008 23.5074 1.70342 23.5048C1.70603 23.5022 1.70958 23.5007 1.71328 23.5007H4.59819C5.05124 23.5007 5.4185 23.1335 5.4185 22.6804C5.4185 22.2274 5.05124 21.8601 4.59819 21.8601H1.71328C1.27446 21.8601 0.853614 22.0344 0.543323 22.3447C0.233031 22.655 0.0587108 23.0759 0.0587108 23.5147V25.9926C0.0587108 26.2099 0.101512 26.425 0.184671 26.6258C0.267829 26.8265 0.389716 27.0089 0.543371 27.1625C0.697025 27.3162 0.879437 27.438 1.08019 27.5212C1.28091 27.6043 1.49615 27.6471 1.71339 27.647Z" fill="#F6F6F6"/>
<path fill-rule="evenodd" clip-rule="evenodd" d="M8.99107 26.8267C8.99107 27.2798 9.35833 27.647 9.81138 27.647H50.5638C51.0168 27.647 51.3841 27.2798 51.3841 26.8267C51.3841 26.3737 51.0168 26.0064 50.5638 26.0064H9.81138C9.35833 26.0064 8.99107 26.3737 8.99107 26.8267Z" fill="#F6F6F6"/>
<path fill-rule="evenodd" clip-rule="evenodd" d="M54.431 26.8267C54.431 27.2798 54.7982 27.647 55.2513 27.647H58.2867C58.2867 27.647 58.2866 27.647 58.2867 27.647C58.5039 27.6471 58.7191 27.6043 58.9199 27.5212C59.1206 27.438 59.303 27.3162 59.4567 27.1625C59.6103 27.0089 59.7322 26.8265 59.8154 26.6258C59.8985 26.425 59.9413 26.2099 59.9413 25.9926V23.5147C59.9413 23.0759 59.767 22.655 59.4567 22.3447C59.1464 22.0344 58.7256 21.8601 58.2868 21.8601H55.1419C54.6889 21.8601 54.3216 22.2274 54.3216 22.6804C54.3216 23.1335 54.6889 23.5007 55.1419 23.5007H58.2868C58.2905 23.5007 58.294 23.5022 58.2966 23.5048C58.2993 23.5074 58.3007 23.511 58.3007 23.5147V25.9926C58.3007 25.9944 58.3004 25.9962 58.2997 25.9979C58.299 25.9996 58.298 26.0011 58.2967 26.0024C58.2954 26.0037 58.2939 26.0047 58.2922 26.0054C58.2905 26.0061 58.2887 26.0064 58.2869 26.0064H55.2513C54.7982 26.0064 54.431 26.3737 54.431 26.8267Z" fill="#F6F6F6"/>
<path fill-rule="evenodd" clip-rule="evenodd" d="M8.89087 22.6804C8.89087 23.1335 9.25814 23.5007 9.71118 23.5007H50.4545C50.9075 23.5007 51.2748 23.1335 51.2748 22.6804C51.2748 22.2274 50.9075 21.8601 50.4545 21.8601H9.71118C9.25814 21.8601 8.89087 22.2274 8.89087 22.6804Z" fill="#F6F6F6"/>
<path fill-rule="evenodd" clip-rule="evenodd" d="M29.9719 45.335C30.425 45.335 30.7922 44.9678 30.7922 44.5147V35.9725H44.3033C44.7363 35.9725 45.0874 36.3236 45.0874 36.7566V44.5147C45.0874 44.9678 45.4547 45.335 45.9077 45.335C46.3608 45.335 46.728 44.9678 46.728 44.5147V36.7566C46.728 35.4175 45.6424 34.3319 44.3033 34.3319H29.9719C29.5189 34.3319 29.1516 34.6991 29.1516 35.1522V44.5147C29.1516 44.9678 29.5189 45.335 29.9719 45.335Z" fill="#F6F6F6"/>
<path fill-rule="evenodd" clip-rule="evenodd" d="M34.9898 41.4765C35.2407 41.6238 35.5508 41.6272 35.8049 41.4853L37.9399 40.2935L40.0751 41.4853C40.3291 41.6272 40.6393 41.6238 40.8902 41.4765C41.1411 41.3292 41.2952 41.06 41.2952 40.7691V35.1522C41.2952 34.6991 40.928 34.3319 40.4749 34.3319H35.4051C34.952 34.3319 34.5847 34.6991 34.5847 35.1522V40.7691C34.5847 41.06 34.7389 41.3292 34.9898 41.4765ZM39.6546 39.3717L38.3398 38.6378C38.0912 38.499 37.7886 38.499 37.5401 38.6378L36.2254 39.3717V35.9725H39.6546V39.3717Z" fill="#F6F6F6"/>
<path fill-rule="evenodd" clip-rule="evenodd" d="M14.0362 45.335C14.4893 45.335 14.8565 44.9678 14.8565 44.5147V32.4026C14.8565 31.9694 15.2077 31.6184 15.6406 31.6184H28.3675C28.8006 31.6184 29.1517 31.9695 29.1517 32.4026V34.9496C29.1517 35.4026 29.519 35.7699 29.972 35.7699C30.4251 35.7699 30.7923 35.4026 30.7923 34.9496V32.4026C30.7923 31.0634 29.7067 29.9778 28.3675 29.9778H15.6406C14.3015 29.9778 13.2159 31.0634 13.2159 32.4026V44.5147C13.2159 44.9678 13.5832 45.335 14.0362 45.335Z" fill="#F6F6F6"/>
<path fill-rule="evenodd" clip-rule="evenodd" d="M19.054 37.1224C19.3049 37.2697 19.615 37.2731 19.8691 37.1313L22.0042 35.9394L24.1393 37.1313C24.3933 37.2731 24.7035 37.2697 24.9544 37.1224C25.2053 36.9751 25.3594 36.7059 25.3594 36.415V31.1474C25.3594 30.6944 24.9922 30.3271 24.5391 30.3271C24.0861 30.3271 23.7188 30.6944 23.7188 31.1474V35.0176L22.4041 34.2837C22.1556 34.145 21.8529 34.145 21.6044 34.2837L20.2896 35.0176V31.1875C20.2896 30.7345 19.9223 30.3672 19.4692 30.3672C19.0162 30.3672 18.6489 30.7345 18.6489 31.1875V36.415C18.6489 36.7059 18.803 36.9751 19.054 37.1224Z" fill="#F6F6F6"/>
<path fill-rule="evenodd" clip-rule="evenodd" d="M29.9719 23.0831C30.425 23.0831 30.7922 22.7158 30.7922 22.2628V13.6121H44.3033C44.7363 13.6121 45.0874 13.9632 45.0874 14.3963V22.0626C45.0874 22.5156 45.4547 22.8829 45.9077 22.8829C46.3608 22.8829 46.728 22.5156 46.728 22.0626V14.3963C46.728 13.0572 45.6425 11.9715 44.3033 11.9715H29.9719C29.5189 11.9715 29.1516 12.3388 29.1516 12.7918V22.2628C29.1516 22.7158 29.5189 23.0831 29.9719 23.0831Z" fill="#F6F6F6"/>
<path fill-rule="evenodd" clip-rule="evenodd" d="M34.9898 19.1161C35.2407 19.2634 35.5508 19.2668 35.8049 19.125L37.9399 17.9331L40.0751 19.125C40.3291 19.2668 40.6393 19.2634 40.8902 19.1161C41.1411 18.9688 41.2952 18.6997 41.2952 18.4087V13.378C41.2952 12.9249 40.928 12.5577 40.4749 12.5577C40.0219 12.5577 39.6546 12.9249 39.6546 13.378V17.0113L38.3398 16.2774C38.0912 16.1387 37.7886 16.1387 37.5401 16.2774L36.2254 17.0113V13.378C36.2254 12.9249 35.8581 12.5577 35.4051 12.5577C34.952 12.5577 34.5847 12.9249 34.5847 13.378V18.4087C34.5847 18.6997 34.7389 18.9688 34.9898 19.1161Z" fill="#F6F6F6"/>
<path fill-rule="evenodd" clip-rule="evenodd" d="M14.0362 14.2392C14.4893 14.2392 14.8565 13.8719 14.8565 13.4189V10.0422C14.8565 9.60916 15.2077 9.25803 15.6406 9.25803H28.3675C28.8006 9.25803 29.1517 9.6092 29.1517 10.0422L29.1516 12.7918C29.1516 13.2449 29.519 13.6121 29.972 13.6121C30.4251 13.6121 30.7923 13.2449 30.7923 12.7918V10.0422C30.7923 8.70319 29.7068 7.61741 28.3675 7.61741H15.6406C14.3014 7.61741 13.2159 8.70323 13.2159 10.0422V13.4189C13.2159 13.8719 13.5832 14.2392 14.0362 14.2392Z" fill="#F6F6F6"/>
<path fill-rule="evenodd" clip-rule="evenodd" d="M14.0362 22.8829C14.4893 22.8829 14.8565 22.5156 14.8565 22.0626V16.9345C14.8565 16.4814 14.4893 16.1142 14.0362 16.1142C13.5832 16.1142 13.2159 16.4814 13.2159 16.9345V22.0626C13.2159 22.5156 13.5832 22.8829 14.0362 22.8829Z" fill="#F6F6F6"/>
<path fill-rule="evenodd" clip-rule="evenodd" d="M19.054 14.7622C19.3049 14.9095 19.615 14.9128 19.8691 14.771L22.0042 13.5791L24.1392 14.771C24.3933 14.9128 24.7035 14.9095 24.9544 14.7622C25.2053 14.6149 25.3594 14.3457 25.3594 14.0547V8.93553C25.3594 8.48249 24.9922 8.11522 24.5391 8.11522C24.0861 8.11522 23.7188 8.48249 23.7188 8.93553V12.6573L22.4041 11.9233C22.1556 11.7846 21.8529 11.7846 21.6044 11.9233L20.2896 12.6573V8.81553C20.2896 8.36249 19.9223 7.99522 19.4692 7.99522C19.0162 7.99522 18.6489 8.36249 18.6489 8.81553V14.0547C18.6489 14.3457 18.803 14.6149 19.054 14.7622Z" fill="#F6F6F6"/>
<path fill-rule="evenodd" clip-rule="evenodd" d="M50.4943 59.4162C50.8306 59.7525 51.2868 59.9415 51.7624 59.9415H53.9627C54.4383 59.9415 54.8944 59.7525 55.2308 59.4162C55.5671 59.0799 55.756 58.6238 55.756 58.1482V1.85215C55.756 1.37653 55.5671 0.920396 55.2308 0.584086C54.8944 0.247773 54.4383 0.0588379 53.9627 0.0588379H51.7624C51.2868 0.0588951 50.8306 0.247841 50.4944 0.584122C50.1581 0.920403 49.9691 1.37647 49.9691 1.85205V58.1482C49.9691 58.6238 50.158 59.0799 50.4943 59.4162ZM51.7624 58.3009C51.7219 58.3009 51.6831 58.2848 51.6544 58.2561C51.6258 58.2275 51.6097 58.1887 51.6097 58.1482V1.85225C51.6097 1.85222 51.6097 1.85228 51.6097 1.85225C51.6097 1.81177 51.6258 1.77285 51.6545 1.74422C51.6831 1.71559 51.7219 1.69949 51.7624 1.69946C51.7624 1.69946 51.7624 1.69946 51.7624 1.69946H53.9627C54.0032 1.69946 54.042 1.71555 54.0707 1.74418C54.0993 1.77282 54.1154 1.81166 54.1154 1.85215V58.1482C54.1154 58.1887 54.0993 58.2275 54.0707 58.2561C54.042 58.2848 54.0032 58.3009 53.9627 58.3009H51.7624Z" fill="#F6F6F6"/>
<path fill-rule="evenodd" clip-rule="evenodd" d="M4.76918 59.4162C5.1055 59.7525 5.56163 59.9415 6.03725 59.9415H8.23734C8.23737 59.9415 8.23731 59.9415 8.23734 59.9415C8.47283 59.9415 8.70611 59.8951 8.92368 59.805C9.14128 59.7149 9.339 59.5828 9.50555 59.4163C9.67209 59.2498 9.80421 59.0521 9.89435 58.8345C9.98448 58.6169 10.0309 58.3837 10.0309 58.1482V1.85215C10.0308 1.37654 9.84184 0.920331 9.50551 0.584043C9.16918 0.247755 8.71305 0.0588379 8.23744 0.0588379H6.03725C5.56163 0.0588379 5.1055 0.247773 4.76918 0.584086C4.43287 0.920396 4.24393 1.37653 4.24393 1.85215V58.1482C4.24393 58.6238 4.43287 59.0799 4.76918 59.4162ZM6.03725 58.3009C5.99675 58.3009 5.95792 58.2848 5.92928 58.2561C5.90065 58.2275 5.88456 58.1887 5.88456 58.1482V1.85215C5.88456 1.81166 5.90064 1.77282 5.92928 1.74418C5.95791 1.71555 5.99675 1.69946 6.03725 1.69946H8.23744C8.27797 1.69946 8.31683 1.71556 8.34549 1.74421C8.37412 1.77284 8.39022 1.81167 8.39025 1.85215C8.39025 1.85218 8.39025 1.85212 8.39025 1.85215V58.1482C8.39025 58.1682 8.3863 58.1881 8.37862 58.2066C8.37095 58.2251 8.3597 58.242 8.34552 58.2561C8.33134 58.2703 8.3145 58.2816 8.29598 58.2892C8.27745 58.2969 8.25759 58.3009 8.23754 58.3009H6.03725Z" fill="#F6F6F6"/>
</g>
</g>
<defs>
<clipPath id="clip0_120_462">
<rect width="60" height="60" fill="white"/>
</clipPath>
</defs>
</svg>
