<svg width="60" height="60" viewBox="0 0 60 60" fill="none" xmlns="http://www.w3.org/2000/svg">
<g id="icons 02" clip-path="url(#clip0_120_461)">
<g id="Group">
<path id="Vector" d="M43.2636 24H42.0004C41.4771 24 41.0531 24.4241 41.0531 24.9473C41.0531 25.4706 41.4772 25.8947 42.0004 25.8947H43.2636C43.7869 25.8947 44.2109 25.4706 44.2109 24.9473C44.2109 24.4241 43.7868 24 43.2636 24ZM36.6322 30C36.6322 29.8756 36.6077 29.7524 36.5601 29.6374C36.5125 29.5225 36.4427 29.418 36.3548 29.3301C36.2668 29.2421 36.1623 29.1723 36.0474 29.1247C35.9324 29.0771 35.8092 29.0526 35.6848 29.0527H15.4742C15.3498 29.0526 15.2266 29.0771 15.1116 29.1247C14.9967 29.1723 14.8923 29.2421 14.8043 29.3301C14.7163 29.4181 14.6465 29.5225 14.5989 29.6374C14.5513 29.7524 14.5268 29.8756 14.5269 30C14.5268 30.1244 14.5513 30.2476 14.5989 30.3626C14.6465 30.4775 14.7163 30.582 14.8043 30.6699C14.8922 30.7579 14.9967 30.8277 15.1116 30.8753C15.2266 30.9229 15.3498 30.9474 15.4742 30.9473H35.6847C35.8091 30.9474 35.9323 30.9229 36.0473 30.8753C36.1622 30.8277 36.2667 30.7579 36.3547 30.6699C36.4426 30.5819 36.5124 30.4775 36.56 30.3626C36.6077 30.2476 36.6322 30.1244 36.6322 30ZM15.4742 48C14.9508 48 14.5269 48.4241 14.5269 48.9473C14.5269 49.4706 14.9508 49.8947 15.4742 49.8947H20.5269C21.0502 49.8947 21.4742 49.4706 21.4742 48.9473C21.4742 48.4241 21.0502 48 20.5269 48H15.4742Z" fill="#F6F6F6"/>
<path id="Vector_2" d="M40.4849 51.0315C41.1373 51.9018 42.1762 52.4211 43.2638 52.4211C44.3514 52.4211 45.3903 51.9018 46.0428 51.0316L59.3059 33.3475C60.4552 31.8152 60.1435 29.6337 58.611 28.4842C57.0787 27.3352 54.897 27.6468 53.748 29.1791L53.053 30.1056V3.47367C53.0532 1.55836 51.4948 0 49.5795 0H9.1587C7.24315 0 5.68491 1.55836 5.68491 3.47367V3.78949H3.4744C1.55897 3.78949 0.000732422 5.34785 0.000732422 7.26316V52.7368C0.000732422 54.6521 1.55897 56.2105 3.4744 56.2105H5.68491V56.5263C5.68491 58.4416 7.24315 60 9.15858 60H49.5794C51.4947 60 53.053 58.4416 53.053 56.5263V46.421C53.0531 46.2966 53.0286 46.1734 52.981 46.0584C52.9334 45.9435 52.8636 45.839 52.7756 45.7511C52.6877 45.6631 52.5832 45.5933 52.4683 45.5457C52.3533 45.4981 52.2301 45.4736 52.1057 45.4737C51.9813 45.4736 51.8581 45.4981 51.7431 45.5457C51.6282 45.5933 51.5237 45.6631 51.4357 45.7511C51.3478 45.839 51.278 45.9435 51.2304 46.0584C51.1828 46.1734 51.1583 46.2966 51.1583 46.421V56.5263C51.1583 57.397 50.4501 58.1053 49.5794 58.1053H9.1587C8.288 58.1053 7.57972 57.397 7.57972 56.5263V16.1053C7.57972 15.582 7.15562 15.158 6.63237 15.158C6.10913 15.158 5.68503 15.5821 5.68503 16.1053V54.3158H3.4744C2.6037 54.3158 1.89542 53.6075 1.89542 52.7368V7.26316C1.89542 6.39246 2.6037 5.68418 3.4744 5.68418H5.68491V12.3157C5.68491 12.8391 6.10901 13.263 6.63226 13.263C7.1555 13.263 7.5796 12.8389 7.5796 12.3157V3.47367C7.5796 2.60297 8.28788 1.89469 9.15858 1.89469H49.5794C50.4501 1.89469 51.1583 2.60297 51.1583 3.47367V32.5263C51.1583 32.5597 51.1601 32.5925 51.1634 32.6251L43.2638 43.158L40.3587 39.2843C39.8021 38.5419 38.9895 38.0609 38.071 37.9297C37.152 37.7985 36.2376 38.033 35.4955 38.5896C34.7532 39.1463 34.2721 39.9588 34.141 40.8773C34.0097 41.796 34.2442 42.7105 34.8008 43.4528L40.4849 51.0315ZM36.0166 41.1452C36.0454 40.9398 36.1147 40.7421 36.2204 40.5636C36.3262 40.3851 36.4662 40.2294 36.6325 40.1053C36.9044 39.9001 37.2357 39.7892 37.5763 39.7893C37.6514 39.7893 37.7271 39.7946 37.803 39.8054C38.0084 39.8343 38.2061 39.9036 38.3846 40.0093C38.5631 40.115 38.7188 40.255 38.8429 40.4213L42.5059 45.3055C42.5942 45.4232 42.7086 45.5186 42.8401 45.5844C42.9717 45.6502 43.1167 45.6844 43.2638 45.6844C43.4108 45.6844 43.5559 45.6502 43.6874 45.5844C43.819 45.5186 43.9334 45.4232 44.0216 45.3055L55.2638 30.3159C55.7861 29.6193 56.7778 29.4778 57.4743 30.0001C58.1707 30.5225 58.3124 31.5142 57.7901 32.2106L44.5269 49.8949V49.895C44.3794 50.0907 44.1886 50.2495 43.9695 50.359C43.7503 50.4686 43.5088 50.5259 43.2638 50.5264C43.0188 50.5259 42.7772 50.4685 42.5581 50.359C42.339 50.2494 42.1482 50.0906 42.0007 49.8949L36.3166 42.3159C36.1916 42.1503 36.1008 41.9616 36.0493 41.7606C35.9978 41.5597 35.9866 41.3505 36.0166 41.1452Z" fill="#F6F6F6"/>
<path id="Vector_3" d="M30.3163 43.8946C30.3164 43.7702 30.2919 43.647 30.2443 43.5321C30.1967 43.4171 30.1269 43.3127 30.0389 43.2247C29.951 43.1367 29.8465 43.0669 29.7316 43.0193C29.6166 42.9717 29.4934 42.9472 29.369 42.9473H15.4742C14.9508 42.9473 14.5269 43.3714 14.5269 43.8946C14.5269 44.4179 14.9508 44.842 15.4742 44.842H29.3689C29.4933 44.842 29.6165 44.8175 29.7315 44.7699C29.8464 44.7223 29.9509 44.6525 30.0389 44.5646C30.1269 44.4766 30.1966 44.3721 30.2443 44.2572C30.2919 44.1422 30.3164 44.019 30.3163 43.8946ZM22.4215 16.4209C22.2971 16.4209 22.1739 16.4454 22.059 16.493C21.944 16.5406 21.8396 16.6104 21.7516 16.6983C21.6636 16.7863 21.5938 16.8908 21.5462 17.0057C21.4987 17.1207 21.4742 17.2439 21.4742 17.3683C21.4742 17.4927 21.4987 17.6159 21.5462 17.7309C21.5938 17.8458 21.6636 17.9503 21.7516 18.0382C21.8396 18.1262 21.944 18.196 22.059 18.2436C22.1739 18.2912 22.2971 18.3157 22.4215 18.3156H36.3163C36.4408 18.3157 36.564 18.2912 36.6789 18.2436C36.7939 18.196 36.8983 18.1262 36.9863 18.0382C37.0743 17.9503 37.144 17.8458 37.1916 17.7309C37.2392 17.6159 37.2637 17.4927 37.2637 17.3683C37.2637 17.2439 37.2392 17.1207 37.1916 17.0057C37.144 16.8908 37.0743 16.7863 36.9863 16.6983C36.8983 16.6104 36.7939 16.5406 36.6789 16.493C36.564 16.4454 36.4408 16.4209 36.3163 16.4209H22.4215ZM15.4742 25.8946H35.6847C36.2081 25.8946 36.6321 25.4705 36.6321 24.9473C36.6321 24.424 36.2081 23.9999 35.6847 23.9999H15.4742C14.9508 23.9999 14.5269 24.424 14.5269 24.9473C14.5269 25.4705 14.951 25.8946 15.4742 25.8946ZM43.2636 11.3684H15.4742C15.3498 11.3684 15.2266 11.3929 15.1116 11.4405C14.9967 11.4881 14.8922 11.5578 14.8043 11.6458C14.7163 11.7338 14.6465 11.8382 14.5989 11.9532C14.5513 12.0681 14.5268 12.1913 14.5269 12.3158C14.5268 12.4402 14.5513 12.5634 14.5989 12.6783C14.6465 12.7933 14.7163 12.8977 14.8043 12.9857C14.8922 13.0737 14.9967 13.1434 15.1116 13.191C15.2266 13.2386 15.3498 13.2631 15.4742 13.2631H43.2636C43.388 13.2631 43.5112 13.2386 43.6261 13.191C43.7411 13.1434 43.8455 13.0737 43.9335 12.9857C44.0215 12.8977 44.0913 12.7933 44.1389 12.6783C44.1865 12.5634 44.2109 12.4402 44.2109 12.3158C44.2109 12.1913 44.1864 12.0681 44.1388 11.9532C44.0912 11.8383 44.0215 11.7338 43.9335 11.6458C43.8455 11.5579 43.7411 11.4881 43.6261 11.4405C43.5112 11.3929 43.388 11.3684 43.2636 11.3684ZM43.2636 29.0526H42.0004C41.876 29.0526 41.7528 29.0771 41.6379 29.1247C41.5229 29.1723 41.4185 29.2421 41.3305 29.33C41.2425 29.418 41.1728 29.5224 41.1251 29.6374C41.0775 29.7523 41.0531 29.8755 41.0531 29.9999C41.0531 30.1243 41.0775 30.2475 41.1251 30.3625C41.1728 30.4774 41.2425 30.5819 41.3305 30.6698C41.4185 30.7578 41.5229 30.8276 41.6379 30.8752C41.7528 30.9228 41.876 30.9473 42.0004 30.9473H43.2636C43.388 30.9473 43.5112 30.9228 43.6261 30.8752C43.7411 30.8276 43.8455 30.7578 43.9335 30.6698C44.0215 30.5819 44.0912 30.4774 44.1388 30.3625C44.1864 30.2475 44.2109 30.1243 44.2109 29.9999C44.2109 29.8755 44.1864 29.7523 44.1388 29.6374C44.0912 29.5224 44.0215 29.418 43.9335 29.33C43.8455 29.2421 43.7411 29.1723 43.6261 29.1247C43.5112 29.0771 43.388 29.0526 43.2636 29.0526Z" fill="#F6F6F6"/>
</g>
</g>
<defs>
<clipPath id="clip0_120_461">
<rect width="60" height="60" fill="white"/>
</clipPath>
</defs>
</svg>
