<svg width="60" height="60" viewBox="0 0 60 60" fill="none" xmlns="http://www.w3.org/2000/svg">
<g id="Frame" clip-path="url(#clip0_120_463)">
<g id="Group">
<path id="Vector" d="M51.8336 1.18144C51.384 0.991947 50.8663 1.20253 50.6767 1.65066C50.6313 1.75735 50.6075 1.87194 50.6065 1.98786C50.6055 2.10377 50.6274 2.21875 50.6709 2.3262C50.7144 2.43365 50.7787 2.53146 50.8601 2.61403C50.9414 2.69661 51.0383 2.76232 51.1451 2.80742C55.2282 4.53089 58.2545 8.6123 58.2545 13.5402C58.2545 24.2179 44.9587 29.3064 37.8791 21.2616C33.8763 16.7509 33.9221 9.7448 38.3647 5.30222C40.99 2.67558 44.5399 1.5623 47.9842 1.97058C48.468 2.02601 48.907 1.68265 48.9647 1.19796C49.0223 0.713978 48.6764 0.275111 48.1924 0.217338C36.6288 -1.1568 28.9833 11.8698 35.63 21.2618H17.1336C16.3088 21.2618 15.6395 21.9323 15.6395 22.7559V34.1743L13.9815 37.4327C13.6675 38.0506 13.1438 38.5116 12.5225 38.7474C12.5225 37.3855 11.4546 36.4407 10.2608 36.4407H6.85641C5.68219 36.4407 4.59363 37.3516 4.59363 38.7931H2.40504C1.07895 38.7931 1.31856e-06 39.8721 1.31856e-06 41.1991V42.268C-6.03464e-05 42.3839 0.0227277 42.4986 0.0670619 42.6057C0.111396 42.7128 0.176407 42.8101 0.258375 42.892C0.340343 42.974 0.437661 43.0389 0.544761 43.0832C0.651861 43.1275 0.766643 43.1503 0.88254 43.1502C1.36969 43.1502 1.7652 42.7551 1.7652 42.2681V41.1991C1.7652 40.8452 2.05219 40.5583 2.40504 40.5583H4.59375V52.7756H2.40504C2.23538 52.7754 2.07272 52.7079 1.95277 52.5879C1.83281 52.468 1.76535 52.3053 1.7652 52.1356V45.7979C1.76526 45.682 1.74247 45.5672 1.69813 45.46C1.6538 45.3529 1.58878 45.2556 1.50681 45.1736C1.42484 45.0916 1.32751 45.0266 1.22039 44.9823C1.11327 44.938 0.99847 44.9152 0.88254 44.9152C0.766576 44.9151 0.651719 44.9378 0.544552 44.9821C0.437386 45.0264 0.340018 45.0914 0.258029 45.1734C0.176041 45.2554 0.111045 45.3528 0.0667675 45.46C0.0224897 45.5672 -0.000199276 45.682 1.31856e-06 45.798V52.1357C1.31856e-06 53.4618 1.07895 54.5408 2.40504 54.5408H4.59375C4.59375 55.9832 5.68418 56.8941 6.85652 56.8941H10.2608C11.2977 56.8941 12.173 56.1929 12.439 55.2398C13.5243 55.53 10.5347 55.4151 50.0378 55.4151C50.9474 55.4151 51.6875 54.675 51.6875 53.7653V25.9626C62.6633 21.4706 62.8286 5.838 51.8337 1.18156L51.8336 1.18144ZM10.7573 46.6159V54.6314C10.7573 54.9009 10.5302 55.1294 10.2607 55.1294H6.85641C6.58723 55.1294 6.35883 54.9009 6.35883 54.6314V38.7037C6.35883 38.4328 6.58723 38.2057 6.85641 38.2057H10.2607C10.5304 38.2057 10.7575 38.4328 10.7575 38.7037L10.7573 46.6159ZM26.8843 23.0264H33.6144V29.9514L30.9984 27.9046C30.7845 27.7375 30.5208 27.6468 30.2493 27.6468C29.9778 27.6468 29.7141 27.7375 29.5001 27.9046L26.8845 29.9513L26.8843 23.0264ZM26.6816 53.6452C12.6695 53.6503 13.3515 53.7382 12.5224 53.4123V40.5861C13.8257 40.2987 14.9055 39.5036 15.6394 38.0657C15.8344 37.6825 17.2887 34.8248 17.6421 34.1308C17.9346 33.5463 19.5872 35.0239 18.8081 36.5538L17.9562 38.2283C17.3821 39.3571 18.2005 40.6924 19.4672 40.6924L30.5231 40.6887C31.0702 40.6887 31.5375 41.1373 31.5315 41.6596C31.5257 42.1778 31.098 42.6012 30.5781 42.6041H23.679C23.445 42.6041 23.2205 42.697 23.0551 42.8625C22.8896 43.028 22.7966 43.2524 22.7966 43.4865C22.7966 43.6024 22.8194 43.7172 22.8637 43.8242C22.908 43.9313 22.973 44.0286 23.055 44.1106C23.1369 44.1926 23.2342 44.2576 23.3413 44.3019C23.4484 44.3463 23.5631 44.3691 23.679 44.3691L33.9806 44.3682C34.4251 44.3682 34.8888 44.7766 34.9607 45.173C35.0889 45.8129 34.7134 46.2816 34.0525 46.2816C34.0498 46.2816 32.6837 46.2826 23.605 46.2826C23.4882 46.2812 23.3724 46.3031 23.2642 46.3468C23.1559 46.3905 23.0575 46.4553 22.9744 46.5374C22.8914 46.6195 22.8255 46.7172 22.7805 46.8249C22.7355 46.9326 22.7124 47.0482 22.7124 47.1649C22.7124 47.2817 22.7355 47.3972 22.7805 47.505C22.8255 47.6127 22.8914 47.7104 22.9744 47.7925C23.0575 47.8746 23.1559 47.9393 23.2642 47.9831C23.3724 48.0268 23.4882 48.0486 23.605 48.0473C23.61 48.0473 32.4493 48.0473 32.4544 48.0478C33.3016 48.0788 33.6762 49.1029 33.0934 49.6819C33.005 49.7711 32.8998 49.8419 32.7838 49.8899C32.6678 49.938 32.5434 49.9625 32.4178 49.962C25.6526 49.9662 27.5293 49.9658 22.7571 49.9658C22.2696 49.9658 21.8747 50.3608 21.8747 50.8483C21.8747 51.3358 22.2696 51.7309 22.7571 51.7309C26.9599 51.7309 26.9832 51.6371 27.3591 52.0106C27.9568 52.6102 27.532 53.6452 26.6816 53.6452ZM49.9222 53.6499H44.8603V36.682C44.8602 36.4479 44.7672 36.2235 44.6017 36.058C44.4362 35.8924 44.2117 35.7994 43.9777 35.7993C43.8617 35.7993 43.747 35.8221 43.6399 35.8665C43.5328 35.9108 43.4355 35.9758 43.3535 36.0578C43.2716 36.1398 43.2066 36.2371 43.1623 36.3442C43.118 36.4513 43.0952 36.5661 43.0952 36.682V53.6498H29.2245C29.4689 53.0086 29.4653 52.3343 29.2358 51.7296L32.4178 51.7272C34.3774 51.7272 35.6931 49.7163 34.9136 47.9196C36.875 47.3125 37.352 44.8658 35.9348 43.443C34.9818 42.49 34.0309 42.6031 33.1214 42.6031C33.8034 40.8064 32.427 38.9236 30.5231 38.9236L19.5812 38.9273L20.3814 37.3553C21.7235 34.7158 19.4045 31.8053 17.4046 32.281V23.0264H25.1193V31.0784C25.1193 31.7491 25.6654 32.2947 26.3364 32.2947C26.8801 32.2947 26.77 32.2815 30.2493 29.56C33.6812 32.2448 33.6061 32.2947 34.1619 32.2947C34.8334 32.2947 35.3795 31.7491 35.3795 31.0784V23.0265H37.1186C38.8027 24.7105 40.8557 25.8919 43.0951 26.493V33.1521C43.0951 33.268 43.1178 33.3828 43.1622 33.4899C43.2065 33.597 43.2715 33.6943 43.3535 33.7763C43.4354 33.8583 43.5327 33.9233 43.6398 33.9676C43.7469 34.012 43.8617 34.0348 43.9777 34.0347C44.2117 34.0346 44.4362 33.9416 44.6017 33.7761C44.7672 33.6106 44.8602 33.3861 44.8603 33.1521V26.8436C46.5398 27.0611 48.2711 26.9622 49.9222 26.5439V53.6499Z" fill="#F6F6F6"/>
<path id="Vector_2" d="M40.7782 13.38C40.7014 13.2932 40.6082 13.2223 40.504 13.1715C40.3999 13.1207 40.2867 13.091 40.171 13.084C40.0553 13.0769 39.9393 13.0928 39.8298 13.1306C39.7202 13.1685 39.6192 13.2275 39.5325 13.3044C39.4456 13.3812 39.3748 13.4744 39.324 13.5786C39.2732 13.6827 39.2435 13.7959 39.2365 13.9116C39.2295 14.0273 39.2453 14.1433 39.2832 14.2528C39.321 14.3624 39.3801 14.4634 39.457 14.5501L43.0115 18.5632C43.6964 19.3359 44.9018 19.3345 45.5855 18.5668L53.7484 9.40571C54.073 9.04219 54.0405 8.48415 53.6765 8.16001C53.5018 8.00428 53.2724 7.92432 53.0387 7.93773C52.805 7.95113 52.5862 8.0568 52.4305 8.23149L44.3001 17.3557L40.7782 13.38Z" fill="#F6F6F6"/>
</g>
</g>
<defs>
<clipPath id="clip0_120_463">
<rect width="60" height="60" fill="white"/>
</clipPath>
</defs>
</svg>
