<svg width="36" height="36" viewBox="0 0 36 36" fill="none" xmlns="http://www.w3.org/2000/svg">
<g id="Frame" clip-path="url(#clip0_125_73)">
<g id="Vector">
<path d="M30.728 5.27196C27.3283 1.87233 22.8081 0 18.0002 0C13.1923 0 8.67216 1.87233 5.27245 5.27196C1.87275 8.67173 0.000492181 13.1919 0.000492181 17.9998C0.000492181 21.404 0.948643 24.6976 2.74763 27.5609L0 34.6578L1.34225 36L8.43907 33.2524C11.3024 35.0514 14.596 35.9995 18.0002 35.9995C22.8081 35.9995 27.3283 34.1272 30.728 30.7275C34.1277 27.3278 36 22.8077 36 17.9998C36 13.1919 34.1277 8.67173 30.728 5.27196ZM18.0002 33.8902C14.8303 33.8902 11.7699 32.9595 9.14957 31.1987L8.69325 30.8921L2.84298 33.1571L5.10799 27.3068L4.80136 26.8505C3.04055 24.2301 2.10984 21.1696 2.10984 17.9998C2.10984 13.7553 3.76272 9.76487 6.76404 6.76355C9.76536 3.76223 13.7557 2.10935 18.0002 2.10935C22.2447 2.10935 26.2351 3.76223 29.2365 6.76355C32.2378 9.76487 33.8907 13.7552 33.8907 17.9998C33.8907 22.2443 32.2378 26.2346 29.2365 29.236C26.2351 32.2373 22.2447 33.8902 18.0002 33.8902Z" fill="#C8A35F"/>
<path d="M23.8724 18.4497C23.4818 18.0592 22.8487 18.0592 22.4582 18.4497L21.9974 18.9105C21.6068 19.301 20.9737 19.301 20.5832 18.9105L17.0896 15.4168C16.699 15.0263 16.699 14.3932 17.0896 14.0026L17.5503 13.5418C17.9409 13.1513 17.9409 12.5182 17.5503 12.1276L12.3641 6.94148C11.9736 6.55096 11.3404 6.55096 10.9499 6.94147L8.08301 9.80832C6.48715 11.4042 6.20795 13.8555 7.40409 15.7692C8.46424 17.4654 9.97461 19.272 12.1574 21.4549L14.545 23.8425C16.7276 26.0252 18.5343 27.5355 20.2307 28.5958C21.0243 29.0918 21.91 29.3341 22.7891 29.334C24.03 29.334 25.2575 28.851 26.1915 27.9169L29.0584 25.05C29.449 24.6595 29.449 24.0263 29.0584 23.6358L23.8724 18.4497ZM21.3487 26.8072C19.8126 25.8471 18.075 24.3895 16.0366 22.3511L13.6489 19.9634C11.6104 17.9248 10.1528 16.1872 9.19288 14.6512C8.52035 13.5753 8.67722 12.1972 9.57453 11.2998L10.9499 9.9245C11.3404 9.53399 11.9736 9.534 12.3641 9.92452L14.5672 12.1276C14.9578 12.5182 14.9578 13.1513 14.5672 13.5418L14.1065 14.0026C13.7159 14.3932 13.7159 15.0263 14.1065 15.4168L20.5832 21.8935C20.9737 22.284 21.6068 22.284 21.9974 21.8935L22.4582 21.4327C22.8487 21.0422 23.4818 21.0422 23.8724 21.4328L26.0755 23.6359C26.466 24.0264 26.466 24.6596 26.0755 25.0501L24.7002 26.4255C23.8029 27.3227 22.4247 27.4797 21.3487 26.8072Z" fill="#C8A35F"/>
</g>
</g>
<defs>
<clipPath id="clip0_125_73">
<rect width="36" height="36" fill="white"/>
</clipPath>
</defs>
</svg>
