<svg width="207" height="68" viewBox="0 0 207 68" fill="none" xmlns="http://www.w3.org/2000/svg">
<path d="M6.3457 4.20312V17H4.67578V4.20312H6.3457ZM10.459 4.20312V5.5918H0.571289V4.20312H10.459ZM12.7705 9.31836V20.6562H11.1357V7.49023H12.6299L12.7705 9.31836ZM19.1777 12.166V12.3506C19.1777 13.042 19.0957 13.6836 18.9316 14.2754C18.7676 14.8613 18.5273 15.3711 18.2109 15.8047C17.9004 16.2383 17.5166 16.5752 17.0596 16.8154C16.6025 17.0557 16.0781 17.1758 15.4863 17.1758C14.8828 17.1758 14.3496 17.0762 13.8867 16.877C13.4238 16.6777 13.0312 16.3877 12.709 16.0068C12.3867 15.626 12.1289 15.1689 11.9355 14.6357C11.748 14.1025 11.6191 13.502 11.5488 12.834V11.8496C11.6191 11.1465 11.751 10.5166 11.9443 9.95996C12.1377 9.40332 12.3926 8.92871 12.709 8.53613C13.0312 8.1377 13.4209 7.83594 13.8779 7.63086C14.335 7.41992 14.8623 7.31445 15.46 7.31445C16.0576 7.31445 16.5879 7.43164 17.0508 7.66602C17.5137 7.89453 17.9033 8.22266 18.2197 8.65039C18.5361 9.07812 18.7734 9.59082 18.9316 10.1885C19.0957 10.7803 19.1777 11.4395 19.1777 12.166ZM17.543 12.3506V12.166C17.543 11.6914 17.4932 11.2461 17.3936 10.8301C17.2939 10.4082 17.1387 10.0391 16.9277 9.72266C16.7227 9.40039 16.459 9.14844 16.1367 8.9668C15.8145 8.7793 15.4307 8.68555 14.9854 8.68555C14.5752 8.68555 14.2178 8.75586 13.9131 8.89648C13.6143 9.03711 13.3594 9.22754 13.1484 9.46777C12.9375 9.70215 12.7646 9.97168 12.6299 10.2764C12.501 10.5752 12.4043 10.8857 12.3398 11.208V13.4844C12.457 13.8945 12.6211 14.2812 12.832 14.6445C13.043 15.002 13.3242 15.292 13.6758 15.5146C14.0273 15.7314 14.4697 15.8398 15.0029 15.8398C15.4424 15.8398 15.8203 15.749 16.1367 15.5674C16.459 15.3799 16.7227 15.125 16.9277 14.8027C17.1387 14.4805 17.2939 14.1113 17.3936 13.6953C17.4932 13.2734 17.543 12.8252 17.543 12.3506ZM26.8594 15.374V10.4785C26.8594 10.1035 26.7832 9.77832 26.6309 9.50293C26.4844 9.22168 26.2617 9.00488 25.9629 8.85254C25.6641 8.7002 25.2949 8.62402 24.8555 8.62402C24.4453 8.62402 24.085 8.69434 23.7744 8.83496C23.4697 8.97559 23.2295 9.16016 23.0537 9.38867C22.8838 9.61719 22.7988 9.86328 22.7988 10.127H21.1729C21.1729 9.78711 21.2607 9.4502 21.4365 9.11621C21.6123 8.78223 21.8643 8.48047 22.1924 8.21094C22.5264 7.93555 22.9248 7.71875 23.3877 7.56055C23.8564 7.39648 24.3779 7.31445 24.9521 7.31445C25.6436 7.31445 26.2529 7.43164 26.7803 7.66602C27.3135 7.90039 27.7295 8.25488 28.0283 8.72949C28.333 9.19824 28.4854 9.78711 28.4854 10.4961V14.9258C28.4854 15.2422 28.5117 15.5791 28.5645 15.9365C28.623 16.2939 28.708 16.6016 28.8193 16.8594V17H27.123C27.041 16.8125 26.9766 16.5635 26.9297 16.2529C26.8828 15.9365 26.8594 15.6436 26.8594 15.374ZM27.1406 11.2344L27.1582 12.377H25.5146C25.0518 12.377 24.6387 12.415 24.2754 12.4912C23.9121 12.5615 23.6074 12.6699 23.3613 12.8164C23.1152 12.9629 22.9277 13.1475 22.7988 13.3701C22.6699 13.5869 22.6055 13.8418 22.6055 14.1348C22.6055 14.4336 22.6729 14.7061 22.8076 14.9521C22.9424 15.1982 23.1445 15.3945 23.4141 15.541C23.6895 15.6816 24.0264 15.752 24.4248 15.752C24.9229 15.752 25.3623 15.6465 25.7432 15.4355C26.124 15.2246 26.4258 14.9668 26.6484 14.6621C26.877 14.3574 27 14.0615 27.0176 13.7744L27.7119 14.5566C27.6709 14.8027 27.5596 15.0752 27.3779 15.374C27.1963 15.6729 26.9531 15.96 26.6484 16.2354C26.3496 16.5049 25.9922 16.7305 25.5762 16.9121C25.166 17.0879 24.7031 17.1758 24.1875 17.1758C23.543 17.1758 22.9775 17.0498 22.4912 16.7979C22.0107 16.5459 21.6357 16.209 21.3662 15.7871C21.1025 15.3594 20.9707 14.8818 20.9707 14.3545C20.9707 13.8447 21.0703 13.3965 21.2695 13.0098C21.4688 12.6172 21.7559 12.292 22.1309 12.0342C22.5059 11.7705 22.957 11.5713 23.4844 11.4365C24.0117 11.3018 24.6006 11.2344 25.251 11.2344H27.1406ZM37.4941 11.6123V12.9307H32.4668V11.6123H37.4941ZM32.8096 7.49023V17H31.1836V7.49023H32.8096ZM38.8125 7.49023V17H37.1777V7.49023H38.8125ZM45.2373 15.8398C45.624 15.8398 45.9814 15.7607 46.3096 15.6025C46.6377 15.4443 46.9072 15.2275 47.1182 14.9521C47.3291 14.6709 47.4492 14.3516 47.4785 13.9941H49.0254C48.9961 14.5566 48.8057 15.0811 48.4541 15.5674C48.1084 16.0479 47.6543 16.4375 47.0918 16.7363C46.5293 17.0293 45.9111 17.1758 45.2373 17.1758C44.5225 17.1758 43.8984 17.0498 43.3652 16.7979C42.8379 16.5459 42.3984 16.2002 42.0469 15.7607C41.7012 15.3213 41.4404 14.8174 41.2646 14.249C41.0947 13.6748 41.0098 13.0684 41.0098 12.4297V12.0605C41.0098 11.4219 41.0947 10.8184 41.2646 10.25C41.4404 9.67578 41.7012 9.16895 42.0469 8.72949C42.3984 8.29004 42.8379 7.94434 43.3652 7.69238C43.8984 7.44043 44.5225 7.31445 45.2373 7.31445C45.9814 7.31445 46.6318 7.4668 47.1885 7.77148C47.7451 8.07031 48.1816 8.48047 48.498 9.00195C48.8203 9.51758 48.9961 10.1035 49.0254 10.7598H47.4785C47.4492 10.3672 47.3379 10.0127 47.1445 9.69629C46.957 9.37988 46.6992 9.12793 46.3711 8.94043C46.0488 8.74707 45.6709 8.65039 45.2373 8.65039C44.7393 8.65039 44.3203 8.75 43.9805 8.94922C43.6465 9.14258 43.3799 9.40625 43.1807 9.74023C42.9873 10.0684 42.8467 10.4346 42.7588 10.8389C42.6768 11.2373 42.6357 11.6445 42.6357 12.0605V12.4297C42.6357 12.8457 42.6768 13.2559 42.7588 13.6602C42.8408 14.0645 42.9785 14.4307 43.1719 14.7588C43.3711 15.0869 43.6377 15.3506 43.9717 15.5498C44.3115 15.7432 44.7334 15.8398 45.2373 15.8398ZM57.1904 7.49023V8.83496H52.3828V7.49023H57.1904ZM52.6201 7.49023V17H50.9941V7.49023H52.6201ZM58.6318 7.49023V17H56.9971V7.49023H58.6318ZM60.8115 12.3506V12.1484C60.8115 11.4629 60.9111 10.8271 61.1104 10.2412C61.3096 9.64941 61.5967 9.13672 61.9717 8.70312C62.3467 8.26367 62.8008 7.92383 63.334 7.68359C63.8672 7.4375 64.4648 7.31445 65.127 7.31445C65.7949 7.31445 66.3955 7.4375 66.9287 7.68359C67.4678 7.92383 67.9248 8.26367 68.2998 8.70312C68.6807 9.13672 68.9707 9.64941 69.1699 10.2412C69.3691 10.8271 69.4688 11.4629 69.4688 12.1484V12.3506C69.4688 13.0361 69.3691 13.6719 69.1699 14.2578C68.9707 14.8438 68.6807 15.3564 68.2998 15.7959C67.9248 16.2295 67.4707 16.5693 66.9375 16.8154C66.4102 17.0557 65.8125 17.1758 65.1445 17.1758C64.4766 17.1758 63.876 17.0557 63.3428 16.8154C62.8096 16.5693 62.3525 16.2295 61.9717 15.7959C61.5967 15.3564 61.3096 14.8438 61.1104 14.2578C60.9111 13.6719 60.8115 13.0361 60.8115 12.3506ZM62.4375 12.1484V12.3506C62.4375 12.8252 62.4932 13.2734 62.6045 13.6953C62.7158 14.1113 62.8828 14.4805 63.1055 14.8027C63.334 15.125 63.6182 15.3799 63.958 15.5674C64.2979 15.749 64.6934 15.8398 65.1445 15.8398C65.5898 15.8398 65.9795 15.749 66.3135 15.5674C66.6533 15.3799 66.9346 15.125 67.1572 14.8027C67.3799 14.4805 67.5469 14.1113 67.6582 13.6953C67.7754 13.2734 67.834 12.8252 67.834 12.3506V12.1484C67.834 11.6797 67.7754 11.2373 67.6582 10.8213C67.5469 10.3994 67.377 10.0273 67.1484 9.70508C66.9258 9.37695 66.6445 9.11914 66.3047 8.93164C65.9707 8.74414 65.5781 8.65039 65.127 8.65039C64.6816 8.65039 64.2891 8.74414 63.9492 8.93164C63.6152 9.11914 63.334 9.37695 63.1055 9.70508C62.8828 10.0273 62.7158 10.3994 62.6045 10.8213C62.4932 11.2373 62.4375 11.6797 62.4375 12.1484ZM73.1338 9.31836V20.6562H71.499V7.49023H72.9932L73.1338 9.31836ZM79.541 12.166V12.3506C79.541 13.042 79.459 13.6836 79.2949 14.2754C79.1309 14.8613 78.8906 15.3711 78.5742 15.8047C78.2637 16.2383 77.8799 16.5752 77.4229 16.8154C76.9658 17.0557 76.4414 17.1758 75.8496 17.1758C75.2461 17.1758 74.7129 17.0762 74.25 16.877C73.7871 16.6777 73.3945 16.3877 73.0723 16.0068C72.75 15.626 72.4922 15.1689 72.2988 14.6357C72.1113 14.1025 71.9824 13.502 71.9121 12.834V11.8496C71.9824 11.1465 72.1143 10.5166 72.3076 9.95996C72.501 9.40332 72.7559 8.92871 73.0723 8.53613C73.3945 8.1377 73.7842 7.83594 74.2412 7.63086C74.6982 7.41992 75.2256 7.31445 75.8232 7.31445C76.4209 7.31445 76.9512 7.43164 77.4141 7.66602C77.877 7.89453 78.2666 8.22266 78.583 8.65039C78.8994 9.07812 79.1367 9.59082 79.2949 10.1885C79.459 10.7803 79.541 11.4395 79.541 12.166ZM77.9062 12.3506V12.166C77.9062 11.6914 77.8564 11.2461 77.7568 10.8301C77.6572 10.4082 77.502 10.0391 77.291 9.72266C77.0859 9.40039 76.8223 9.14844 76.5 8.9668C76.1777 8.7793 75.7939 8.68555 75.3486 8.68555C74.9385 8.68555 74.5811 8.75586 74.2764 8.89648C73.9775 9.03711 73.7227 9.22754 73.5117 9.46777C73.3008 9.70215 73.1279 9.97168 72.9932 10.2764C72.8643 10.5752 72.7676 10.8857 72.7031 11.208V13.4844C72.8203 13.8945 72.9844 14.2812 73.1953 14.6445C73.4062 15.002 73.6875 15.292 74.0391 15.5146C74.3906 15.7314 74.833 15.8398 75.3662 15.8398C75.8057 15.8398 76.1836 15.749 76.5 15.5674C76.8223 15.3799 77.0859 15.125 77.291 14.8027C77.502 14.4805 77.6572 14.1113 77.7568 13.6953C77.8564 13.2734 77.9062 12.8252 77.9062 12.3506ZM84.7881 7.49023V17H83.1533V7.49023H84.7881ZM87.9785 7.49023V8.80859H80.0244V7.49023H87.9785ZM96.0293 11.6123V12.9307H91.002V11.6123H96.0293ZM91.3447 7.49023V17H89.7188V7.49023H91.3447ZM97.3477 7.49023V17H95.7129V7.49023H97.3477ZM105.574 15.374V10.4785C105.574 10.1035 105.498 9.77832 105.346 9.50293C105.199 9.22168 104.977 9.00488 104.678 8.85254C104.379 8.7002 104.01 8.62402 103.57 8.62402C103.16 8.62402 102.8 8.69434 102.489 8.83496C102.185 8.97559 101.944 9.16016 101.769 9.38867C101.599 9.61719 101.514 9.86328 101.514 10.127H99.8877C99.8877 9.78711 99.9756 9.4502 100.151 9.11621C100.327 8.78223 100.579 8.48047 100.907 8.21094C101.241 7.93555 101.64 7.71875 102.103 7.56055C102.571 7.39648 103.093 7.31445 103.667 7.31445C104.358 7.31445 104.968 7.43164 105.495 7.66602C106.028 7.90039 106.444 8.25488 106.743 8.72949C107.048 9.19824 107.2 9.78711 107.2 10.4961V14.9258C107.2 15.2422 107.227 15.5791 107.279 15.9365C107.338 16.2939 107.423 16.6016 107.534 16.8594V17H105.838C105.756 16.8125 105.691 16.5635 105.645 16.2529C105.598 15.9365 105.574 15.6436 105.574 15.374ZM105.855 11.2344L105.873 12.377H104.229C103.767 12.377 103.354 12.415 102.99 12.4912C102.627 12.5615 102.322 12.6699 102.076 12.8164C101.83 12.9629 101.643 13.1475 101.514 13.3701C101.385 13.5869 101.32 13.8418 101.32 14.1348C101.32 14.4336 101.388 14.7061 101.522 14.9521C101.657 15.1982 101.859 15.3945 102.129 15.541C102.404 15.6816 102.741 15.752 103.14 15.752C103.638 15.752 104.077 15.6465 104.458 15.4355C104.839 15.2246 105.141 14.9668 105.363 14.6621C105.592 14.3574 105.715 14.0615 105.732 13.7744L106.427 14.5566C106.386 14.8027 106.274 15.0752 106.093 15.374C105.911 15.6729 105.668 15.96 105.363 16.2354C105.064 16.5049 104.707 16.7305 104.291 16.9121C103.881 17.0879 103.418 17.1758 102.902 17.1758C102.258 17.1758 101.692 17.0498 101.206 16.7979C100.726 16.5459 100.351 16.209 100.081 15.7871C99.8174 15.3594 99.6855 14.8818 99.6855 14.3545C99.6855 13.8447 99.7852 13.3965 99.9844 13.0098C100.184 12.6172 100.471 12.292 100.846 12.0342C101.221 11.7705 101.672 11.5713 102.199 11.4365C102.727 11.3018 103.315 11.2344 103.966 11.2344H105.855ZM111.683 12.4648H113.44L110.689 17H108.932L111.683 12.4648ZM113.045 7.49023H117.018V17H115.392V8.80859H113.045C112.582 8.80859 112.204 8.8877 111.911 9.0459C111.618 9.19824 111.404 9.39746 111.27 9.64355C111.135 9.88965 111.067 10.1445 111.067 10.4082C111.067 10.666 111.129 10.915 111.252 11.1553C111.375 11.3896 111.568 11.583 111.832 11.7354C112.096 11.8877 112.436 11.9639 112.852 11.9639H115.831V13.2998H112.852C112.307 13.2998 111.823 13.2266 111.401 13.0801C110.979 12.9336 110.622 12.7314 110.329 12.4736C110.036 12.21 109.813 11.9023 109.661 11.5508C109.509 11.1934 109.433 10.8066 109.433 10.3906C109.433 9.97461 109.512 9.59082 109.67 9.23926C109.834 8.8877 110.068 8.58008 110.373 8.31641C110.684 8.05273 111.062 7.85059 111.507 7.70996C111.958 7.56348 112.471 7.49023 113.045 7.49023ZM125.868 7.49023V17H124.242V7.49023H125.868ZM132.108 7.49023L127.6 12.9395H125.323L125.077 11.5156H126.94L130.131 7.49023H132.108ZM130.359 17L126.861 12.6934L127.907 11.5156L132.425 17H130.359ZM133.216 12.3506V12.1484C133.216 11.4629 133.315 10.8271 133.515 10.2412C133.714 9.64941 134.001 9.13672 134.376 8.70312C134.751 8.26367 135.205 7.92383 135.738 7.68359C136.271 7.4375 136.869 7.31445 137.531 7.31445C138.199 7.31445 138.8 7.4375 139.333 7.68359C139.872 7.92383 140.329 8.26367 140.704 8.70312C141.085 9.13672 141.375 9.64941 141.574 10.2412C141.773 10.8271 141.873 11.4629 141.873 12.1484V12.3506C141.873 13.0361 141.773 13.6719 141.574 14.2578C141.375 14.8438 141.085 15.3564 140.704 15.7959C140.329 16.2295 139.875 16.5693 139.342 16.8154C138.814 17.0557 138.217 17.1758 137.549 17.1758C136.881 17.1758 136.28 17.0557 135.747 16.8154C135.214 16.5693 134.757 16.2295 134.376 15.7959C134.001 15.3564 133.714 14.8438 133.515 14.2578C133.315 13.6719 133.216 13.0361 133.216 12.3506ZM134.842 12.1484V12.3506C134.842 12.8252 134.897 13.2734 135.009 13.6953C135.12 14.1113 135.287 14.4805 135.51 14.8027C135.738 15.125 136.022 15.3799 136.362 15.5674C136.702 15.749 137.098 15.8398 137.549 15.8398C137.994 15.8398 138.384 15.749 138.718 15.5674C139.058 15.3799 139.339 15.125 139.562 14.8027C139.784 14.4805 139.951 14.1113 140.062 13.6953C140.18 13.2734 140.238 12.8252 140.238 12.3506V12.1484C140.238 11.6797 140.18 11.2373 140.062 10.8213C139.951 10.3994 139.781 10.0273 139.553 9.70508C139.33 9.37695 139.049 9.11914 138.709 8.93164C138.375 8.74414 137.982 8.65039 137.531 8.65039C137.086 8.65039 136.693 8.74414 136.354 8.93164C136.02 9.11914 135.738 9.37695 135.51 9.70508C135.287 10.0273 135.12 10.3994 135.009 10.8213C134.897 11.2373 134.842 11.6797 134.842 12.1484ZM149.379 14.8379L152.613 7.49023H154.178L149.941 17H148.816L144.598 7.49023H146.162L149.379 14.8379ZM145.688 7.49023V17H144.062V7.49023H145.688ZM153.018 17V7.49023H154.652V17H153.018ZM163.608 7.49023V8.83496H158.801V7.49023H163.608ZM159.038 7.49023V17H157.412V7.49023H159.038ZM165.05 7.49023V17H163.415V7.49023H165.05ZM173.268 15.374V10.4785C173.268 10.1035 173.191 9.77832 173.039 9.50293C172.893 9.22168 172.67 9.00488 172.371 8.85254C172.072 8.7002 171.703 8.62402 171.264 8.62402C170.854 8.62402 170.493 8.69434 170.183 8.83496C169.878 8.97559 169.638 9.16016 169.462 9.38867C169.292 9.61719 169.207 9.86328 169.207 10.127H167.581C167.581 9.78711 167.669 9.4502 167.845 9.11621C168.021 8.78223 168.272 8.48047 168.601 8.21094C168.935 7.93555 169.333 7.71875 169.796 7.56055C170.265 7.39648 170.786 7.31445 171.36 7.31445C172.052 7.31445 172.661 7.43164 173.188 7.66602C173.722 7.90039 174.138 8.25488 174.437 8.72949C174.741 9.19824 174.894 9.78711 174.894 10.4961V14.9258C174.894 15.2422 174.92 15.5791 174.973 15.9365C175.031 16.2939 175.116 16.6016 175.228 16.8594V17H173.531C173.449 16.8125 173.385 16.5635 173.338 16.2529C173.291 15.9365 173.268 15.6436 173.268 15.374ZM173.549 11.2344L173.566 12.377H171.923C171.46 12.377 171.047 12.415 170.684 12.4912C170.32 12.5615 170.016 12.6699 169.77 12.8164C169.523 12.9629 169.336 13.1475 169.207 13.3701C169.078 13.5869 169.014 13.8418 169.014 14.1348C169.014 14.4336 169.081 14.7061 169.216 14.9521C169.351 15.1982 169.553 15.3945 169.822 15.541C170.098 15.6816 170.435 15.752 170.833 15.752C171.331 15.752 171.771 15.6465 172.151 15.4355C172.532 15.2246 172.834 14.9668 173.057 14.6621C173.285 14.3574 173.408 14.0615 173.426 13.7744L174.12 14.5566C174.079 14.8027 173.968 15.0752 173.786 15.374C173.604 15.6729 173.361 15.96 173.057 16.2354C172.758 16.5049 172.4 16.7305 171.984 16.9121C171.574 17.0879 171.111 17.1758 170.596 17.1758C169.951 17.1758 169.386 17.0498 168.899 16.7979C168.419 16.5459 168.044 16.209 167.774 15.7871C167.511 15.3594 167.379 14.8818 167.379 14.3545C167.379 13.8447 167.479 13.3965 167.678 13.0098C167.877 12.6172 168.164 12.292 168.539 12.0342C168.914 11.7705 169.365 11.5713 169.893 11.4365C170.42 11.3018 171.009 11.2344 171.659 11.2344H173.549ZM183.902 11.6123V12.9307H178.875V11.6123H183.902ZM179.218 7.49023V17H177.592V7.49023H179.218ZM185.221 7.49023V17H183.586V7.49023H185.221ZM189.598 14.4248L193.983 7.49023H195.618V17H193.983V10.0654L189.598 17H187.98V7.49023H189.598V14.4248ZM200.153 12.4648H201.911L199.16 17H197.402L200.153 12.4648ZM201.516 7.49023H205.488V17H203.862V8.80859H201.516C201.053 8.80859 200.675 8.8877 200.382 9.0459C200.089 9.19824 199.875 9.39746 199.74 9.64355C199.605 9.88965 199.538 10.1445 199.538 10.4082C199.538 10.666 199.6 10.915 199.723 11.1553C199.846 11.3896 200.039 11.583 200.303 11.7354C200.566 11.8877 200.906 11.9639 201.322 11.9639H204.302V13.2998H201.322C200.777 13.2998 200.294 13.2266 199.872 13.0801C199.45 12.9336 199.093 12.7314 198.8 12.4736C198.507 12.21 198.284 11.9023 198.132 11.5508C197.979 11.1934 197.903 10.8066 197.903 10.3906C197.903 9.97461 197.982 9.59082 198.141 9.23926C198.305 8.8877 198.539 8.58008 198.844 8.31641C199.154 8.05273 199.532 7.85059 199.978 7.70996C200.429 7.56348 200.941 7.49023 201.516 7.49023Z" fill="#C8A35F"/>
<path d="M21.6055 42.2773V45.3633H9.94531V42.2773H21.6055ZM3.01172 48.957H6.76172C6.97005 50.2982 7.3151 51.444 7.79688 52.3945C8.29167 53.3451 9.01432 54.0742 9.96484 54.582C10.9154 55.0768 12.1914 55.3242 13.793 55.3242C15.056 55.3242 16.1497 55.0638 17.0742 54.543C17.9987 54.0091 18.7604 53.2799 19.3594 52.3555C19.9583 51.431 20.401 50.3568 20.6875 49.1328C20.987 47.9089 21.1367 46.6003 21.1367 45.207V42.3555C21.1367 41.1445 21.0326 40.0247 20.8242 38.9961C20.6159 37.9544 20.3034 37.0234 19.8867 36.2031C19.4701 35.3698 18.9492 34.6602 18.3242 34.0742C17.7122 33.4883 16.9961 33.0391 16.1758 32.7266C15.3685 32.4141 14.4635 32.2578 13.4609 32.2578C12.0026 32.2578 10.8112 32.5182 9.88672 33.0391C8.97526 33.5599 8.27214 34.3021 7.77734 35.2656C7.29557 36.2161 6.95703 37.3555 6.76172 38.6836H3.01172C3.20703 36.8086 3.72135 35.1615 4.55469 33.7422C5.38802 32.3099 6.54036 31.1901 8.01172 30.3828C9.49609 29.5755 11.3125 29.1719 13.4609 29.1719C15.2188 29.1719 16.8008 29.4844 18.207 30.1094C19.6133 30.7344 20.8112 31.6263 21.8008 32.7852C22.8034 33.944 23.5651 35.3372 24.0859 36.9648C24.6198 38.5924 24.8867 40.4023 24.8867 42.3945V45.207C24.8867 47.1992 24.6198 49.0091 24.0859 50.6367C23.5651 52.2513 22.8164 53.638 21.8398 54.7969C20.8633 55.9427 19.6914 56.8281 18.3242 57.4531C16.9701 58.0781 15.4596 58.3906 13.793 58.3906C11.5143 58.3906 9.61328 57.9805 8.08984 57.1602C6.56641 56.3268 5.38802 55.2005 4.55469 53.7812C3.73438 52.362 3.22005 50.7539 3.01172 48.957ZM34.3594 29.5625V58H30.5898V29.5625H34.3594ZM51.8789 29.5625L39.5352 45.207H32.8555L32.2695 42.082H37.2891L47.2109 29.5625H51.8789ZM48.0898 58L37.4062 44.7188L39.5156 41.418L52.6992 58H48.0898ZM72.6602 48.957H76.4102C76.2148 50.7539 75.7005 52.362 74.8672 53.7812C74.0339 55.2005 72.8555 56.3268 71.332 57.1602C69.8086 57.9805 67.9076 58.3906 65.6289 58.3906C63.9622 58.3906 62.4453 58.0781 61.0781 57.4531C59.724 56.8281 58.5586 55.9427 57.582 54.7969C56.6055 53.638 55.8503 52.2513 55.3164 50.6367C54.7956 49.0091 54.5352 47.1992 54.5352 45.207V42.375C54.5352 40.3828 54.7956 38.5794 55.3164 36.9648C55.8503 35.3372 56.612 33.944 57.6016 32.7852C58.6042 31.6263 59.8086 30.7344 61.2148 30.1094C62.6211 29.4844 64.2031 29.1719 65.9609 29.1719C68.1094 29.1719 69.9258 29.5755 71.4102 30.3828C72.8945 31.1901 74.0469 32.3099 74.8672 33.7422C75.7005 35.1615 76.2148 36.8086 76.4102 38.6836H72.6602C72.4779 37.3555 72.1393 36.2161 71.6445 35.2656C71.1497 34.3021 70.4466 33.5599 69.5352 33.0391C68.6237 32.5182 67.4323 32.2578 65.9609 32.2578C64.6979 32.2578 63.5846 32.4987 62.6211 32.9805C61.6706 33.4622 60.8698 34.1458 60.2188 35.0312C59.5807 35.9167 59.099 36.9779 58.7734 38.2148C58.4479 39.4518 58.2852 40.8255 58.2852 42.3359V45.207C58.2852 46.6003 58.4284 47.9089 58.7148 49.1328C59.0143 50.3568 59.4635 51.431 60.0625 52.3555C60.6615 53.2799 61.4232 54.0091 62.3477 54.543C63.2721 55.0638 64.3659 55.3242 65.6289 55.3242C67.2305 55.3242 68.5065 55.0703 69.457 54.5625C70.4076 54.0547 71.1237 53.3255 71.6055 52.375C72.1003 51.4245 72.4518 50.2852 72.6602 48.957ZM103.266 29.5625V58H99.5156V32.6484H85.4922V58H81.7227V29.5625H103.266ZM120.59 46.8477H112.992V43.7812H120.59C122.061 43.7812 123.253 43.5469 124.164 43.0781C125.076 42.6094 125.74 41.9583 126.156 41.125C126.586 40.2917 126.801 39.3411 126.801 38.2734C126.801 37.2969 126.586 36.3789 126.156 35.5195C125.74 34.6602 125.076 33.9701 124.164 33.4492C123.253 32.9154 122.061 32.6484 120.59 32.6484H113.871V58H110.102V29.5625H120.59C122.738 29.5625 124.555 29.9336 126.039 30.6758C127.523 31.418 128.65 32.4466 129.418 33.7617C130.186 35.0638 130.57 36.5547 130.57 38.2344C130.57 40.0573 130.186 41.6133 129.418 42.9023C128.65 44.1914 127.523 45.1745 126.039 45.8516C124.555 46.5156 122.738 46.8477 120.59 46.8477ZM153.402 54.9336V58H138.344V54.9336H153.402ZM139.105 29.5625V58H135.336V29.5625H139.105ZM151.41 41.7891V44.8555H138.344V41.7891H151.41ZM153.207 29.5625V32.6484H138.344V29.5625H153.207ZM175.238 48.957H178.988C178.793 50.7539 178.279 52.362 177.445 53.7812C176.612 55.2005 175.434 56.3268 173.91 57.1602C172.387 57.9805 170.486 58.3906 168.207 58.3906C166.54 58.3906 165.023 58.0781 163.656 57.4531C162.302 56.8281 161.137 55.9427 160.16 54.7969C159.184 53.638 158.428 52.2513 157.895 50.6367C157.374 49.0091 157.113 47.1992 157.113 45.207V42.375C157.113 40.3828 157.374 38.5794 157.895 36.9648C158.428 35.3372 159.19 33.944 160.18 32.7852C161.182 31.6263 162.387 30.7344 163.793 30.1094C165.199 29.4844 166.781 29.1719 168.539 29.1719C170.688 29.1719 172.504 29.5755 173.988 30.3828C175.473 31.1901 176.625 32.3099 177.445 33.7422C178.279 35.1615 178.793 36.8086 178.988 38.6836H175.238C175.056 37.3555 174.717 36.2161 174.223 35.2656C173.728 34.3021 173.025 33.5599 172.113 33.0391C171.202 32.5182 170.01 32.2578 168.539 32.2578C167.276 32.2578 166.163 32.4987 165.199 32.9805C164.249 33.4622 163.448 34.1458 162.797 35.0312C162.159 35.9167 161.677 36.9779 161.352 38.2148C161.026 39.4518 160.863 40.8255 160.863 42.3359V45.207C160.863 46.6003 161.007 47.9089 161.293 49.1328C161.592 50.3568 162.042 51.431 162.641 52.3555C163.24 53.2799 164.001 54.0091 164.926 54.543C165.85 55.0638 166.944 55.3242 168.207 55.3242C169.809 55.3242 171.085 55.0703 172.035 54.5625C172.986 54.0547 173.702 53.3255 174.184 52.375C174.678 51.4245 175.03 50.2852 175.238 48.957ZM201.293 48.957H205.043C204.848 50.7539 204.333 52.362 203.5 53.7812C202.667 55.2005 201.488 56.3268 199.965 57.1602C198.441 57.9805 196.54 58.3906 194.262 58.3906C192.595 58.3906 191.078 58.0781 189.711 57.4531C188.357 56.8281 187.191 55.9427 186.215 54.7969C185.238 53.638 184.483 52.2513 183.949 50.6367C183.428 49.0091 183.168 47.1992 183.168 45.207V42.375C183.168 40.3828 183.428 38.5794 183.949 36.9648C184.483 35.3372 185.245 33.944 186.234 32.7852C187.237 31.6263 188.441 30.7344 189.848 30.1094C191.254 29.4844 192.836 29.1719 194.594 29.1719C196.742 29.1719 198.559 29.5755 200.043 30.3828C201.527 31.1901 202.68 32.3099 203.5 33.7422C204.333 35.1615 204.848 36.8086 205.043 38.6836H201.293C201.111 37.3555 200.772 36.2161 200.277 35.2656C199.783 34.3021 199.079 33.5599 198.168 33.0391C197.257 32.5182 196.065 32.2578 194.594 32.2578C193.331 32.2578 192.217 32.4987 191.254 32.9805C190.303 33.4622 189.503 34.1458 188.852 35.0312C188.214 35.9167 187.732 36.9779 187.406 38.2148C187.081 39.4518 186.918 40.8255 186.918 42.3359V45.207C186.918 46.6003 187.061 47.9089 187.348 49.1328C187.647 50.3568 188.096 51.431 188.695 52.3555C189.294 53.2799 190.056 54.0091 190.98 54.543C191.905 55.0638 192.999 55.3242 194.262 55.3242C195.863 55.3242 197.139 55.0703 198.09 54.5625C199.04 54.0547 199.757 53.3255 200.238 52.375C200.733 51.4245 201.085 50.2852 201.293 48.957Z" fill="#F6F6F6"/>
</svg>
